<?xml version="1.0" encoding="UTF-8"?>
<svg xmlns="http://www.w3.org/2000/svg" viewBox="0 0 100 140" width="200" height="280">
  <defs>
    <linearGradient id="paper" x1="0" y1="0" x2="0" y2="1">
      <stop offset="0%" stop-color="#fdf9ec"></stop>
      <stop offset="55%" stop-color="#f6efd8"></stop>
      <stop offset="100%" stop-color="#ebe1c1"></stop>
    </linearGradient>
    <linearGradient id="sheen" x1="0" y1="0" x2="1" y2="0.7">
      <stop offset="0%" stop-color="#fff" stop-opacity="0.5"></stop>
      <stop offset="50%" stop-color="#fff" stop-opacity="0.08"></stop>
      <stop offset="100%" stop-color="#fff" stop-opacity="0"></stop>
    </linearGradient>
    <linearGradient id="brass" x1="0" y1="0" x2="1" y2="1">
      <stop offset="0%" stop-color="#f0d690"></stop>
      <stop offset="40%" stop-color="#c9a24b"></stop>
      <stop offset="100%" stop-color="#7a5a1c"></stop>
    </linearGradient>
    <filter id="shadow" x="-20%" y="-20%" width="140%" height="140%">
      <feGaussianBlur in="SourceAlpha" stdDeviation="1.6"></feGaussianBlur>
      <feOffset dx="0" dy="1.6" result="off"></feOffset>
      <feComponentTransfer in="off" result="sh"><feFuncA type="linear" slope="0.45"></feFuncA></feComponentTransfer>
      <feMerge><feMergeNode in="sh"></feMergeNode><feMergeNode in="SourceGraphic"></feMergeNode></feMerge>
    </filter>
  </defs>
  <g filter="url(#shadow)">
    <rect x="3" y="3" width="94" height="134" rx="10" fill="url(#brass)"></rect>
    <rect x="5.5" y="5.5" width="89" height="129" rx="8.2" fill="url(#paper)"></rect>
    <rect x="8" y="8" width="84" height="124" rx="6.5" fill="none" stroke="url(#brass)" stroke-width="0.7" opacity="0.55"></rect>
  </g>
  <g transform="translate(12 32) scale(0.76)">
    <path d="M 50 8 C 50 8, 80 35, 80 58 C 80 72, 70 80, 60 80 C 55 80, 51 77, 50 74 C 49 77, 45 80, 40 80 C 30 80, 20 72, 20 58 C 20 35, 50 8, 50 8 Z M 50 70 C 50 78, 47 86, 40 92 L 60 92 C 53 86, 50 78, 50 70 Z" fill="#0a0805"></path>
  </g>
  <g transform="translate(11 9)">
    <text x="0" y="17" font-family="&#39;DM Serif Display&#39;, Georgia, serif" font-size="22" fill="#0a0805">A</text>
    <g transform="translate(2 21) scale(0.18)">
      <path d="M 50 8 C 50 8, 80 35, 80 58 C 80 72, 70 80, 60 80 C 55 80, 51 77, 50 74 C 49 77, 45 80, 40 80 C 30 80, 20 72, 20 58 C 20 35, 50 8, 50 8 Z M 50 70 C 50 78, 47 86, 40 92 L 60 92 C 53 86, 50 78, 50 70 Z" fill="#0a0805"></path>
    </g>
  </g>
  <g transform="translate(89 131) rotate(180)">
    <text x="0" y="17" font-family="&#39;DM Serif Display&#39;, Georgia, serif" font-size="22" fill="#0a0805">A</text>
    <g transform="translate(2 21) scale(0.18)">
      <path d="M 50 8 C 50 8, 80 35, 80 58 C 80 72, 70 80, 60 80 C 55 80, 51 77, 50 74 C 49 77, 45 80, 40 80 C 30 80, 20 72, 20 58 C 20 35, 50 8, 50 8 Z M 50 70 C 50 78, 47 86, 40 92 L 60 92 C 53 86, 50 78, 50 70 Z" fill="#0a0805"></path>
    </g>
  </g>
  <rect x="5.5" y="5.5" width="89" height="60" rx="8.2" fill="url(#sheen)"></rect>
</svg>